<?xml version="1.0" encoding="UTF-8"?>
<!DOCTYPE svg PUBLIC "-//W3C//DTD SVG 1.1//EN" "http://www.w3.org/Graphics/SVG/1.1/DTD/svg11.dtd">
<svg xmlns="http://www.w3.org/2000/svg" version="1.1" width="1032px" height="284px" style="shape-rendering:geometricPrecision; text-rendering:geometricPrecision; image-rendering:optimizeQuality; fill-rule:evenodd; clip-rule:evenodd" xmlns:xlink="http://www.w3.org/1999/xlink">
<g><path style="opacity:1" fill="#000000" d="M -0.5,-0.5 C 343.5,-0.5 687.5,-0.5 1031.5,-0.5C 1031.5,94.1667 1031.5,188.833 1031.5,283.5C 687.5,283.5 343.5,283.5 -0.5,283.5C -0.5,188.833 -0.5,94.1667 -0.5,-0.5 Z"/></g>
<g><path style="opacity:1" fill="#fafafa" d="M 171.5,80.5 C 170.167,80.5 168.833,80.5 167.5,80.5C 167.5,76.8333 167.5,73.1667 167.5,69.5C 171.537,54.622 180.537,43.7887 194.5,37C 198.632,35.1003 202.966,34.267 207.5,34.5C 207.637,56.5006 197.637,71.6673 177.5,80C 175.527,80.4955 173.527,80.6621 171.5,80.5 Z"/></g>
<g><path style="opacity:1" fill="#f9f9f9" d="M 550.5,37.5 C 550.5,55.5 550.5,73.5 550.5,91.5C 547.833,91.5 545.167,91.5 542.5,91.5C 542.5,73.5 542.5,55.5 542.5,37.5C 545.167,37.5 547.833,37.5 550.5,37.5 Z"/></g>
<g><path style="opacity:1" fill="#f3f3f3" d="M 687.5,37.5 C 687.5,55.8333 687.5,74.1667 687.5,92.5C 685.143,92.6633 682.81,92.4966 680.5,92C 679.773,90.6012 679.273,89.1012 679,87.5C 677.457,89.3783 675.624,90.8783 673.5,92C 662.181,94.9251 655.014,90.7584 652,79.5C 650.071,70.2046 652.571,62.3712 659.5,56C 665.685,52.5235 671.685,52.6901 677.5,56.5C 677.56,57.0431 677.893,57.3764 678.5,57.5C 679.497,50.8665 679.83,44.1998 679.5,37.5C 682.167,37.5 684.833,37.5 687.5,37.5 Z"/></g>
<g><path style="opacity:1" fill="#f8f8f8" d="M 872.5,37.5 C 875.167,37.5 877.833,37.5 880.5,37.5C 880.167,45.2576 880.501,52.2576 881.5,58.5C 887.986,52.2449 894.819,51.9116 902,57.5C 903.439,59.2746 904.439,61.2746 905,63.5C 905.5,72.8274 905.666,82.1607 905.5,91.5C 902.833,91.5 900.167,91.5 897.5,91.5C 897.826,82.9832 897.493,74.6499 896.5,66.5C 894.862,61.0134 891.195,59.1801 885.5,61C 883.266,62.6379 881.933,64.8045 881.5,67.5C 880.508,75.3159 880.174,83.3159 880.5,91.5C 877.833,91.5 875.167,91.5 872.5,91.5C 872.5,73.5 872.5,55.5 872.5,37.5 Z"/></g>
<g><path style="opacity:1" fill="#929292" d="M 550.5,37.5 C 547.833,37.5 545.167,37.5 542.5,37.5C 542.5,55.5 542.5,73.5 542.5,91.5C 545.167,91.5 547.833,91.5 550.5,91.5C 547.713,92.4767 544.713,92.81 541.5,92.5C 541.5,73.8333 541.5,55.1667 541.5,36.5C 544.713,36.19 547.713,36.5233 550.5,37.5 Z"/></g>
<g><path style="opacity:1" fill="#6c6c6c" d="M 687.5,37.5 C 684.833,37.5 682.167,37.5 679.5,37.5C 679.83,44.1998 679.497,50.8665 678.5,57.5C 677.893,57.3764 677.56,57.0431 677.5,56.5C 678.491,50.021 678.824,43.3543 678.5,36.5C 681.713,36.19 684.713,36.5233 687.5,37.5 Z"/></g>
<g><path style="opacity:1" fill="#939393" d="M 872.5,37.5 C 875.287,36.5233 878.287,36.19 881.5,36.5C 881.5,43.8333 881.5,51.1667 881.5,58.5C 880.501,52.2576 880.167,45.2576 880.5,37.5C 877.833,37.5 875.167,37.5 872.5,37.5 Z"/></g>
<g><path style="opacity:1" fill="#f2f2f2" d="M 331.5,39.5 C 338.508,39.3337 345.508,39.5004 352.5,40C 366.081,42.0758 373.081,49.9092 373.5,63.5C 374.248,79.8537 366.582,89.3537 350.5,92C 344.175,92.4995 337.842,92.6662 331.5,92.5C 331.5,74.8333 331.5,57.1667 331.5,39.5 Z"/></g>
<g><path style="opacity:1" fill="#f7f7f7" d="M 850.5,45.5 C 851.477,48.2869 851.81,51.2869 851.5,54.5C 854.5,54.5 857.5,54.5 860.5,54.5C 860.5,56.5 860.5,58.5 860.5,60.5C 857.5,60.5 854.5,60.5 851.5,60.5C 851.334,67.8409 851.5,75.1742 852,82.5C 854.196,85.1252 857.03,86.1252 860.5,85.5C 860.5,87.8333 860.5,90.1667 860.5,92.5C 856.486,92.6655 852.486,92.4988 848.5,92C 846.383,90.2691 844.883,88.1024 844,85.5C 843.5,77.1733 843.334,68.84 843.5,60.5C 841.833,60.5 840.167,60.5 838.5,60.5C 838.5,58.5 838.5,56.5 838.5,54.5C 840.415,54.7845 842.081,54.4511 843.5,53.5C 842.267,47.7323 844.6,45.0656 850.5,45.5 Z"/></g>
<g><path style="opacity:1" fill="#020202" d="M 339.5,46.5 C 361.446,44.6191 369.28,54.2858 363,75.5C 360.447,80.703 356.28,83.8697 350.5,85C 346.848,85.4986 343.182,85.6653 339.5,85.5C 339.5,72.5 339.5,59.5 339.5,46.5 Z"/></g>
<g><path style="opacity:1" fill="#6d6d6d" d="M 475.5,54.5 C 477.948,53.5269 480.615,53.1936 483.5,53.5C 483.737,54.791 483.404,55.791 482.5,56.5C 480.721,54.6565 478.388,53.9898 475.5,54.5 Z"/></g>
<g><path style="opacity:1" fill="#6d6d6d" d="M 850.5,45.5 C 850.56,44.9569 850.893,44.6236 851.5,44.5C 852.484,47.4281 852.817,50.4281 852.5,53.5C 855.5,53.5 858.5,53.5 861.5,53.5C 861.802,56.0593 861.468,58.3926 860.5,60.5C 860.5,58.5 860.5,56.5 860.5,54.5C 857.5,54.5 854.5,54.5 851.5,54.5C 851.81,51.2869 851.477,48.2869 850.5,45.5 Z"/></g>
<g><path style="opacity:1" fill="#f2f2f2" d="M 397.5,53.5 C 419.007,54.8323 425.507,65.499 417,85.5C 409.657,93.021 401.157,94.521 391.5,90C 380.594,78.3715 380.928,67.0382 392.5,56C 394.315,55.2432 395.981,54.4098 397.5,53.5 Z"/></g>
<g><path style="opacity:1" fill="#efefef" d="M 475.5,54.5 C 478.388,53.9898 480.721,54.6565 482.5,56.5C 478.905,68.1191 475.405,79.7857 472,91.5C 469.281,92.4438 466.448,92.7771 463.5,92.5C 461.57,83.3169 459.07,74.3169 456,65.5C 453.054,74.4047 450.554,83.4047 448.5,92.5C 445.552,92.7771 442.719,92.4438 440,91.5C 436.804,79.4108 433.304,67.4108 429.5,55.5C 432.428,54.5159 435.428,54.1826 438.5,54.5C 440.012,63.8832 441.845,73.2165 444,82.5C 447.119,73.6409 449.952,64.6409 452.5,55.5C 455.086,54.52 457.753,54.1866 460.5,54.5C 462.428,63.9695 464.928,73.3028 468,82.5C 470.217,72.9577 472.717,63.6243 475.5,54.5 Z"/></g>
<g><path style="opacity:1" fill="#fbfbfb" d="M 526.5,64.5 C 526.5,73.5 526.5,82.5 526.5,91.5C 524.167,91.5 521.833,91.5 519.5,91.5C 519.826,83.3159 519.492,75.3159 518.5,67.5C 517.24,61.4253 513.573,59.2586 507.5,61C 505.616,62.0487 504.282,63.5487 503.5,65.5C 502.507,73.9839 502.174,82.6506 502.5,91.5C 499.833,91.5 497.167,91.5 494.5,91.5C 494.5,79.1667 494.5,66.8333 494.5,54.5C 496.833,54.5 499.167,54.5 501.5,54.5C 501.34,56.1992 501.506,57.8659 502,59.5C 506.176,53.888 511.676,52.0547 518.5,54C 522.919,56.2421 525.586,59.7421 526.5,64.5 Z"/></g>
<g><path style="opacity:1" fill="#f1f1f1" d="M 576.5,53.5 C 594.143,53.3131 601.643,61.9797 599,79.5C 594.196,90.9851 585.696,95.1518 573.5,92C 562.279,84.6884 559.446,74.8551 565,62.5C 568.045,58.4057 571.878,55.4057 576.5,53.5 Z"/></g>
<g><path style="opacity:1" fill="#f3f3f3" d="M 639.5,86.5 C 639.5,88.1667 639.5,89.8333 639.5,91.5C 637.167,91.5 634.833,91.5 632.5,91.5C 632.719,90.325 632.386,89.325 631.5,88.5C 626.85,92.313 621.516,93.4797 615.5,92C 611.047,89.9289 609.047,86.4289 609.5,81.5C 609.051,77.5666 610.384,74.4 613.5,72C 618.662,68.5566 624.328,67.0566 630.5,67.5C 631.275,63.8184 629.941,61.3184 626.5,60C 622.299,59.0776 618.299,59.5776 614.5,61.5C 612.553,59.7244 612.22,57.7244 613.5,55.5C 619.765,53.0617 626.098,52.895 632.5,55C 635.728,56.5629 637.895,59.0629 639,62.5C 639.5,70.4931 639.666,78.4931 639.5,86.5 Z"/></g>
<g><path style="opacity:1" fill="#f1f1f1" d="M 736.5,53.5 C 754.143,53.3131 761.643,61.9797 759,79.5C 754.196,90.9851 745.696,95.1518 733.5,92C 722.279,84.6884 719.446,74.8551 725,62.5C 728.045,58.4057 731.878,55.4057 736.5,53.5 Z"/></g>
<g><path style="opacity:1" fill="#fafafa" d="M 804.5,91.5 C 801.833,91.5 799.167,91.5 796.5,91.5C 796.826,82.6506 796.493,73.9839 795.5,65.5C 794.488,62.1471 792.154,60.4805 788.5,60.5C 783.95,60.7188 781.283,63.0521 780.5,67.5C 779.508,75.3159 779.174,83.3159 779.5,91.5C 777.167,91.5 774.833,91.5 772.5,91.5C 772.5,79.1667 772.5,66.8333 772.5,54.5C 774.5,54.5 776.5,54.5 778.5,54.5C 778.5,56.1667 778.5,57.8333 778.5,59.5C 780.179,59.7148 781.179,59.0481 781.5,57.5C 785.731,53.7253 790.731,52.5586 796.5,54C 800.058,55.8917 802.558,58.7251 804,62.5C 804.5,72.1609 804.666,81.8276 804.5,91.5 Z"/></g>
<g><path style="opacity:1" fill="#828282" d="M 843.5,53.5 C 842.081,54.4511 840.415,54.7845 838.5,54.5C 838.5,56.5 838.5,58.5 838.5,60.5C 837.532,58.3926 837.198,56.0593 837.5,53.5C 839.5,53.5 841.5,53.5 843.5,53.5 Z"/></g>
<g><path style="opacity:1" fill="#f3f3f3" d="M 950.5,66.5 C 950.5,69.1667 950.5,71.8333 950.5,74.5C 941.983,74.1739 933.65,74.5073 925.5,75.5C 925.87,79.7494 927.87,82.9161 931.5,85C 936.887,85.7845 942.22,85.6178 947.5,84.5C 948.769,86.6948 948.769,88.8615 947.5,91C 926.887,96.3701 917.053,88.5368 918,67.5C 922.737,54.2149 931.57,50.3816 944.5,56C 947.934,58.7033 949.934,62.2033 950.5,66.5 Z"/></g>
<g><path style="opacity:1" fill="#080808" d="M 942.5,65.5 C 942.5,66.5 942.5,67.5 942.5,68.5C 936.729,69.1128 931.396,68.4461 926.5,66.5C 928.506,59.5029 932.839,57.6696 939.5,61C 941.141,62.129 942.141,63.629 942.5,65.5 Z"/></g>
<g><path style="opacity:1" fill="#080808" d="M 399.5,59.5 C 404.952,59.1437 408.785,61.477 411,66.5C 411.667,70.8333 411.667,75.1667 411,79.5C 408.149,86.392 403.316,88.2253 396.5,85C 392.681,79.7952 391.514,73.9618 393,67.5C 394.305,64.0386 396.471,61.372 399.5,59.5 Z"/></g>
<g><path style="opacity:1" fill="#080808" d="M 577.5,59.5 C 583.347,58.8399 587.513,61.1733 590,66.5C 591.895,74.1363 590.061,80.6363 584.5,86C 578.307,87.6539 574.14,85.4872 572,79.5C 569.927,71.5871 571.761,64.9205 577.5,59.5 Z"/></g>
<g><path style="opacity:1" fill="#0a0a0a" d="M 665.5,60.5 C 677.868,60.159 682.368,66.159 679,78.5C 676.747,85.1059 672.247,87.2725 665.5,85C 660.755,79.7307 659.255,73.564 661,66.5C 662.332,64.34 663.832,62.34 665.5,60.5 Z"/></g>
<g><path style="opacity:1" fill="#080808" d="M 737.5,59.5 C 743.347,58.8399 747.513,61.1733 750,66.5C 751.895,74.1363 750.061,80.6363 744.5,86C 738.307,87.6539 734.14,85.4872 732,79.5C 729.927,71.5871 731.761,64.9205 737.5,59.5 Z"/></g>
<g><path style="opacity:1" fill="#a2a2a2" d="M 781.5,57.5 C 781.179,59.0481 780.179,59.7148 778.5,59.5C 778.5,57.8333 778.5,56.1667 778.5,54.5C 776.5,54.5 774.5,54.5 772.5,54.5C 772.5,66.8333 772.5,79.1667 772.5,91.5C 774.833,91.5 777.167,91.5 779.5,91.5C 779.174,83.3159 779.508,75.3159 780.5,67.5C 780.5,75.8333 780.5,84.1667 780.5,92.5C 777.5,92.5 774.5,92.5 771.5,92.5C 771.5,79.5 771.5,66.5 771.5,53.5C 774.167,53.5 776.833,53.5 779.5,53.5C 779.34,55.1992 779.506,56.8659 780,58.5C 780.383,57.944 780.883,57.6107 781.5,57.5 Z"/></g>
<g><path style="opacity:1" fill="#4e4e4e" d="M 501.5,54.5 C 499.167,54.5 496.833,54.5 494.5,54.5C 494.5,66.8333 494.5,79.1667 494.5,91.5C 497.167,91.5 499.833,91.5 502.5,91.5C 502.174,82.6506 502.507,73.9839 503.5,65.5C 503.5,74.5 503.5,83.5 503.5,92.5C 500.167,92.5 496.833,92.5 493.5,92.5C 493.5,79.5 493.5,66.5 493.5,53.5C 496.385,53.1936 499.052,53.5269 501.5,54.5 Z"/></g>
<g><path style="opacity:1" fill="#9f9f9f" d="M 526.5,64.5 C 527.494,73.6517 527.827,82.985 527.5,92.5C 524.5,92.5 521.5,92.5 518.5,92.5C 518.5,84.1667 518.5,75.8333 518.5,67.5C 519.492,75.3159 519.826,83.3159 519.5,91.5C 521.833,91.5 524.167,91.5 526.5,91.5C 526.5,82.5 526.5,73.5 526.5,64.5 Z"/></g>
<g><path style="opacity:1" fill="#575757" d="M 795.5,65.5 C 796.493,73.9839 796.826,82.6506 796.5,91.5C 799.167,91.5 801.833,91.5 804.5,91.5C 801.713,92.4767 798.713,92.81 795.5,92.5C 795.5,83.5 795.5,74.5 795.5,65.5 Z"/></g>
<g><path style="opacity:1" fill="#747474" d="M 896.5,66.5 C 897.493,74.6499 897.826,82.9832 897.5,91.5C 900.167,91.5 902.833,91.5 905.5,91.5C 902.713,92.4767 899.713,92.81 896.5,92.5C 896.5,83.8333 896.5,75.1667 896.5,66.5 Z"/></g>
<g><path style="opacity:1" fill="#4e4e4e" d="M 942.5,65.5 C 943.434,66.5676 943.768,67.901 943.5,69.5C 937.5,69.5 931.5,69.5 925.5,69.5C 925.263,68.209 925.596,67.209 926.5,66.5C 931.396,68.4461 936.729,69.1128 942.5,68.5C 942.5,67.5 942.5,66.5 942.5,65.5 Z"/></g>
<g><path style="opacity:1" fill="#939393" d="M 881.5,67.5 C 881.5,75.8333 881.5,84.1667 881.5,92.5C 878.287,92.81 875.287,92.4767 872.5,91.5C 875.167,91.5 877.833,91.5 880.5,91.5C 880.174,83.3159 880.508,75.3159 881.5,67.5 Z"/></g>
<g><path style="opacity:1" fill="#0e0e0e" d="M 622.5,73.5 C 625.5,73.5 628.5,73.5 631.5,73.5C 632.984,83.351 628.984,87.351 619.5,85.5C 616.238,80.3968 617.238,76.3968 622.5,73.5 Z"/></g>
<g><path style="opacity:1" fill="#bfbfbf" d="M 950.5,66.5 C 951.477,69.2869 951.81,72.2869 951.5,75.5C 942.833,75.5 934.167,75.5 925.5,75.5C 933.65,74.5073 941.983,74.1739 950.5,74.5C 950.5,71.8333 950.5,69.1667 950.5,66.5 Z"/></g>
<g><path style="opacity:1" fill="#b4b4b4" d="M 167.5,69.5 C 167.5,73.1667 167.5,76.8333 167.5,80.5C 168.833,80.5 170.167,80.5 171.5,80.5C 170.081,81.4511 168.415,81.7845 166.5,81.5C 166.183,77.2984 166.517,73.2984 167.5,69.5 Z"/></g>
<g><path style="opacity:1" fill="#fdfdfd" d="M 196.5,83.5 C 216.231,81.4054 232.231,88.072 244.5,103.5C 221.909,120.064 216.742,141.064 229,166.5C 234.608,174.113 241.442,180.279 249.5,185C 243.966,202.752 234.632,218.085 221.5,231C 213.563,237.229 204.563,239.229 194.5,237C 184.163,231.332 173.163,229.332 161.5,231C 154.92,233.527 148.253,235.86 141.5,238C 133.798,239.484 127.131,237.484 121.5,232C 95.5084,205.167 83.0084,173.001 84,135.5C 86.54,110.211 99.7067,93.3781 123.5,85C 136.937,83.2392 149.603,85.5725 161.5,92C 165.5,92.6667 169.5,92.6667 173.5,92C 181.269,89.1011 188.936,86.2677 196.5,83.5 Z"/></g>
<g><path style="opacity:1" fill="#8d8d8d" d="M 639.5,86.5 C 640.461,88.2646 640.795,90.2646 640.5,92.5C 637.615,92.8064 634.948,92.4731 632.5,91.5C 634.833,91.5 637.167,91.5 639.5,91.5C 639.5,89.8333 639.5,88.1667 639.5,86.5 Z"/></g>
<g><path style="opacity:1" fill="#f8f8f8" d="M 648.5,128.5 C 659.513,127.608 670.18,129.108 680.5,133C 680.957,133.414 681.291,133.914 681.5,134.5C 680.352,138.43 679.018,142.264 677.5,146C 670.631,144.633 663.631,143.466 656.5,142.5C 646.869,142.312 640.869,146.812 638.5,156C 638.64,160.946 640.64,164.946 644.5,168C 651.208,171.905 658.208,175.238 665.5,178C 684.139,186.789 689.972,200.955 683,220.5C 678.717,228.399 672.217,233.566 663.5,236C 652.167,239.333 640.833,239.333 629.5,236C 625.681,234.926 622.348,233.093 619.5,230.5C 620.973,226.079 622.64,221.745 624.5,217.5C 628.361,220.4 632.695,222.233 637.5,223C 643.833,223.667 650.167,223.667 656.5,223C 669.104,217.9 671.937,209.4 665,197.5C 654.288,191.446 643.455,185.613 632.5,180C 620.152,168.638 618.318,155.805 627,141.5C 632.928,134.96 640.094,130.626 648.5,128.5 Z"/></g>
<g><path style="opacity:1" fill="#f8f8f8" d="M 354.5,130.5 C 362.087,130.186 369.587,130.519 377,131.5C 388.279,166.503 399.446,201.503 410.5,236.5C 404.167,236.5 397.833,236.5 391.5,236.5C 388.833,226.167 386.167,215.833 383.5,205.5C 371.482,205.168 359.482,205.501 347.5,206.5C 344.653,216.225 341.653,225.891 338.5,235.5C 332.5,236.833 326.5,236.833 320.5,235.5C 332.25,200.585 343.583,165.585 354.5,130.5 Z"/></g>
<g><path style="opacity:1" fill="#f7f7f7" d="M 742.5,172.5 C 736.167,172.5 729.833,172.5 723.5,172.5C 723.171,187.343 723.504,202.01 724.5,216.5C 724.933,219.195 726.266,221.362 728.5,223C 732.821,223.499 737.154,223.666 741.5,223.5C 741.5,227.833 741.5,232.167 741.5,236.5C 734.195,237.517 726.861,237.683 719.5,237C 711.445,233.069 707.278,226.569 707,217.5C 706.5,202.504 706.333,187.504 706.5,172.5C 702.833,172.5 699.167,172.5 695.5,172.5C 695.5,168.167 695.5,163.833 695.5,159.5C 699.167,159.5 702.833,159.5 706.5,159.5C 706.334,154.821 706.501,150.155 707,145.5C 712.385,143.539 717.885,141.872 723.5,140.5C 723.5,146.833 723.5,153.167 723.5,159.5C 729.833,159.5 736.167,159.5 742.5,159.5C 742.5,163.833 742.5,168.167 742.5,172.5 Z"/></g>
<g><path style="opacity:1" fill="#090909" d="M 378.5,189.5 C 369.895,191.471 360.895,192.138 351.5,191.5C 355.487,176.369 359.987,161.369 365,146.5C 369.689,160.78 374.189,175.114 378.5,189.5 Z"/></g>
<g><path style="opacity:1" fill="#fafafa" d="M 425.5,172.5 C 425.5,168.5 425.5,164.5 425.5,160.5C 430.167,160.5 434.833,160.5 439.5,160.5C 439.198,163.059 439.532,165.393 440.5,167.5C 440.343,168.873 440.51,170.207 441,171.5C 450.723,159.25 463.223,155.416 478.5,160C 492.305,168.101 498.972,180.267 498.5,196.5C 498.647,207.889 495.48,218.223 489,227.5C 479.304,237.108 467.804,240.274 454.5,237C 450.044,235.021 446.21,232.187 443,228.5C 442.5,241.496 442.333,254.496 442.5,267.5C 436.833,267.5 431.167,267.5 425.5,267.5C 425.5,235.833 425.5,204.167 425.5,172.5 Z"/></g>
<g><path style="opacity:1" fill="#fafafa" d="M 532.5,228.5 C 532.44,227.957 532.107,227.624 531.5,227.5C 530.501,240.817 530.167,254.15 530.5,267.5C 525.167,267.5 519.833,267.5 514.5,267.5C 514.832,234.662 514.498,201.996 513.5,169.5C 513.5,166.167 513.5,162.833 513.5,159.5C 518.5,159.5 523.5,159.5 528.5,159.5C 528.176,163.555 528.509,167.555 529.5,171.5C 540.626,157.86 554.293,154.694 570.5,162C 582.026,170.721 587.693,182.387 587.5,197C 587.213,207.324 584.38,216.824 579,225.5C 567.218,238.572 553.384,241.405 537.5,234C 534.921,232.924 533.254,231.091 532.5,228.5 Z"/></g>
<g><path style="opacity:1" fill="#f7f7f7" d="M 783.5,157.5 C 813.602,158.102 828.102,173.435 827,203.5C 821.305,230.441 804.805,241.608 777.5,237C 762.726,231.212 754.226,220.379 752,204.5C 750.112,180.219 760.612,164.553 783.5,157.5 Z"/></g>
<g><path style="opacity:1" fill="#f4f4f4" d="M 856.5,169.5 C 856.34,171.199 856.506,172.866 857,174.5C 857.717,173.956 858.217,173.289 858.5,172.5C 862.768,161.692 870.768,157.025 882.5,158.5C 882.5,163.833 882.5,169.167 882.5,174.5C 871.193,172.316 863.693,176.649 860,187.5C 859.5,203.83 859.333,220.163 859.5,236.5C 853.5,236.5 847.5,236.5 841.5,236.5C 841.5,210.833 841.5,185.167 841.5,159.5C 846.5,159.5 851.5,159.5 856.5,159.5C 856.5,162.833 856.5,166.167 856.5,169.5 Z"/></g>
<g><path style="opacity:1" fill="#f7f7f7" d="M 917.5,158.5 C 930.525,155.945 941.691,159.279 951,168.5C 957.86,178.805 960.36,190.139 958.5,202.5C 941.5,202.5 924.5,202.5 907.5,202.5C 908.233,218.065 916.399,225.398 932,224.5C 939.037,224.632 945.871,223.632 952.5,221.5C 953.424,225.735 953.424,229.901 952.5,234C 939.698,238.817 926.698,239.484 913.5,236C 900.83,230.655 893.33,221.155 891,207.5C 888.436,190.187 893.603,175.687 906.5,164C 910.046,161.717 913.713,159.884 917.5,158.5 Z"/></g>
<g><path style="opacity:1" fill="#a0a0a0" d="M 440.5,167.5 C 439.532,165.393 439.198,163.059 439.5,160.5C 434.833,160.5 430.167,160.5 425.5,160.5C 425.5,164.5 425.5,168.5 425.5,172.5C 424.515,168.366 424.182,164.032 424.5,159.5C 429.833,159.5 435.167,159.5 440.5,159.5C 440.5,162.167 440.5,164.833 440.5,167.5 Z"/></g>
<g><path style="opacity:1" fill="#050505" d="M 941.5,183.5 C 941.5,185.5 941.5,187.5 941.5,189.5C 930.167,189.5 918.833,189.5 907.5,189.5C 909.758,173.046 918.758,167.213 934.5,172C 938.506,174.851 940.84,178.685 941.5,183.5 Z"/></g>
<g><path style="opacity:1" fill="#030303" d="M 784.5,171.5 C 798.306,170.465 806.472,176.798 809,190.5C 810.801,201.796 808.301,211.963 801.5,221C 784.396,229.699 773.896,224.532 770,205.5C 766.94,193.021 770.107,182.521 779.5,174C 781.315,173.243 782.981,172.41 784.5,171.5 Z"/></g>
<g><path style="opacity:1" fill="#050505" d="M 457.5,171.5 C 470.72,171.041 478.553,177.374 481,190.5C 483.05,202.145 480.217,212.311 472.5,221C 458.129,228.73 448.296,224.896 443,209.5C 442.095,201.089 442.428,192.755 444,184.5C 446.476,177.853 450.976,173.52 457.5,171.5 Z"/></g>
<g><path style="opacity:1" fill="#040404" d="M 544.5,171.5 C 561.528,171.531 569.861,180.198 569.5,197.5C 570.45,209.438 565.784,218.272 555.5,224C 544.191,226.928 536.358,223.095 532,212.5C 531.333,203.5 531.333,194.5 532,185.5C 534.124,178.857 538.291,174.19 544.5,171.5 Z"/></g>
<g><path style="opacity:1" fill="#757575" d="M 856.5,169.5 C 857.167,170.5 857.833,171.5 858.5,172.5C 858.217,173.289 857.717,173.956 857,174.5C 856.506,172.866 856.34,171.199 856.5,169.5 Z"/></g>
<g><path style="opacity:1" fill="#292929" d="M 742.5,172.5 C 736.69,173.49 730.69,173.823 724.5,173.5C 724.5,187.833 724.5,202.167 724.5,216.5C 723.504,202.01 723.171,187.343 723.5,172.5C 729.833,172.5 736.167,172.5 742.5,172.5 Z"/></g>
<g><path style="opacity:1" fill="#696969" d="M 941.5,183.5 C 942.468,185.607 942.802,187.941 942.5,190.5C 930.655,190.828 918.988,190.495 907.5,189.5C 918.833,189.5 930.167,189.5 941.5,189.5C 941.5,187.5 941.5,185.5 941.5,183.5 Z"/></g>
<g><path style="opacity:1" fill="#636363" d="M 378.5,189.5 C 379.404,190.209 379.737,191.209 379.5,192.5C 369.985,192.827 360.652,192.494 351.5,191.5C 360.895,192.138 369.895,191.471 378.5,189.5 Z"/></g>
<g><path style="opacity:1" fill="#9c9c9c" d="M 532.5,228.5 C 531.505,241.323 531.171,254.323 531.5,267.5C 531.167,267.5 530.833,267.5 530.5,267.5C 530.167,254.15 530.501,240.817 531.5,227.5C 532.107,227.624 532.44,227.957 532.5,228.5 Z"/></g>
<g><path style="opacity:1" fill="#676767" d="M 513.5,169.5 C 514.498,201.996 514.832,234.662 514.5,267.5C 519.833,267.5 525.167,267.5 530.5,267.5C 530.833,267.5 531.167,267.5 531.5,267.5C 525.69,268.49 519.69,268.823 513.5,268.5C 513.5,235.5 513.5,202.5 513.5,169.5 Z"/></g>
</svg>
