<?xml version="1.0" encoding="UTF-8"?>
<!DOCTYPE svg PUBLIC "-//W3C//DTD SVG 1.1//EN" "http://www.w3.org/Graphics/SVG/1.1/DTD/svg11.dtd">
<svg xmlns="http://www.w3.org/2000/svg" version="1.1" width="1039px" height="283px" style="shape-rendering:geometricPrecision; text-rendering:geometricPrecision; image-rendering:optimizeQuality; fill-rule:evenodd; clip-rule:evenodd" xmlns:xlink="http://www.w3.org/1999/xlink">
<g><path style="opacity:1" fill="#000000" d="M -0.5,-0.5 C 345.833,-0.5 692.167,-0.5 1038.5,-0.5C 1038.5,93.8333 1038.5,188.167 1038.5,282.5C 692.167,282.5 345.833,282.5 -0.5,282.5C -0.5,188.167 -0.5,93.8333 -0.5,-0.5 Z"/></g>
<g><path style="opacity:1" fill="#f0f0f0" d="M 308.5,53.5 C 309.434,52.4324 309.768,51.099 309.5,49.5C 303.833,49.5 298.167,49.5 292.5,49.5C 292.5,47.8333 292.5,46.1667 292.5,44.5C 300.167,44.5 307.833,44.5 315.5,44.5C 315.224,64.2681 305.224,72.7681 285.5,70C 271.793,64.4251 265.959,54.2584 268,39.5C 275.573,21.9644 288.073,17.131 305.5,25C 309.619,27.5736 309.452,29.7403 305,31.5C 292.572,24.2065 282.572,26.5399 275,38.5C 271.906,50.144 275.739,58.644 286.5,64C 296.94,66.6114 304.273,63.1114 308.5,53.5 Z"/></g>
<g><path style="opacity:1" fill="#ededed" d="M 488.5,21.5 C 510.176,20.0101 520.343,30.0101 519,51.5C 514.318,66.4341 504.151,72.6008 488.5,70C 472.222,62.3919 467.389,50.2252 474,33.5C 477.541,27.78 482.374,23.78 488.5,21.5 Z"/></g>
<g><path style="opacity:1" fill="#c6c6c6" d="M 387.5,22.5 C 387.5,22.8333 387.5,23.1667 387.5,23.5C 377.167,23.5 366.833,23.5 356.5,23.5C 356.5,24.8333 356.5,26.1667 356.5,27.5C 360.702,27.1832 364.702,27.5166 368.5,28.5C 364.167,28.5 359.833,28.5 355.5,28.5C 355.5,26.5 355.5,24.5 355.5,22.5C 366.167,22.5 376.833,22.5 387.5,22.5 Z"/></g>
<g><path style="opacity:1" fill="#f9f9f9" d="M 323.5,22.5 C 332.5,22.5 341.5,22.5 350.5,22.5C 350.5,24.1667 350.5,25.8333 350.5,27.5C 343.167,27.5 335.833,27.5 328.5,27.5C 328.5,32.8333 328.5,38.1667 328.5,43.5C 335.167,43.5 341.833,43.5 348.5,43.5C 348.5,45.1667 348.5,46.8333 348.5,48.5C 341.833,48.5 335.167,48.5 328.5,48.5C 328.179,53.6946 328.513,58.6946 329.5,63.5C 336.5,63.5 343.5,63.5 350.5,63.5C 350.5,65.5 350.5,67.5 350.5,69.5C 341.5,69.5 332.5,69.5 323.5,69.5C 323.5,53.8333 323.5,38.1667 323.5,22.5 Z"/></g>
<g><path style="opacity:1" fill="#f3f3f3" d="M 387.5,23.5 C 387.5,24.8333 387.5,26.1667 387.5,27.5C 383.167,27.5 378.833,27.5 374.5,27.5C 374.5,41.5 374.5,55.5 374.5,69.5C 372.5,69.5 370.5,69.5 368.5,69.5C 368.5,55.8333 368.5,42.1667 368.5,28.5C 364.702,27.5166 360.702,27.1832 356.5,27.5C 356.5,26.1667 356.5,24.8333 356.5,23.5C 366.833,23.5 377.167,23.5 387.5,23.5 Z"/></g>
<g><path style="opacity:1" fill="#eeeeee" d="M 408.5,22.5 C 410.5,22.5 412.5,22.5 414.5,22.5C 414.5,38.1667 414.5,53.8333 414.5,69.5C 412.5,69.5 410.5,69.5 408.5,69.5C 408.5,53.8333 408.5,38.1667 408.5,22.5 Z"/></g>
<g><path style="opacity:1" fill="#f1f1f1" d="M 421.5,22.5 C 432.167,22.5 442.833,22.5 453.5,22.5C 453.5,24.5 453.5,26.5 453.5,28.5C 449.167,28.5 444.833,28.5 440.5,28.5C 440.5,42.1667 440.5,55.8333 440.5,69.5C 438.5,69.5 436.5,69.5 434.5,69.5C 434.5,55.8333 434.5,42.1667 434.5,28.5C 430.167,28.5 425.833,28.5 421.5,28.5C 421.5,26.5 421.5,24.5 421.5,22.5 Z"/></g>
<g><path style="opacity:1" fill="#f0f0f0" d="M 534.5,33.5 C 534.217,32.7109 533.717,32.0442 533,31.5C 532.5,44.1623 532.333,56.8289 532.5,69.5C 530.5,69.5 528.5,69.5 526.5,69.5C 526.5,53.8333 526.5,38.1667 526.5,22.5C 530.007,21.9935 533.174,22.6602 536,24.5C 543,35.8333 550,47.1667 557,58.5C 557.5,46.5046 557.667,34.5046 557.5,22.5C 559.5,22.5 561.5,22.5 563.5,22.5C 563.5,38.1667 563.5,53.8333 563.5,69.5C 560.881,69.7683 558.381,69.435 556,68.5C 548.822,56.8054 541.656,45.1388 534.5,33.5 Z"/></g>
<g><path style="opacity:1" fill="#030303" d="M 488.5,27.5 C 505.653,25.8237 513.82,33.4904 513,50.5C 509.228,61.8825 501.395,66.3825 489.5,64C 477.955,57.3649 474.788,47.8649 480,35.5C 482.729,32.6007 485.562,29.934 488.5,27.5 Z"/></g>
<g><path style="opacity:1" fill="#747474" d="M 387.5,22.5 C 388.461,24.2646 388.795,26.2646 388.5,28.5C 384.167,28.5 379.833,28.5 375.5,28.5C 375.829,42.3435 375.496,56.0102 374.5,69.5C 374.5,55.5 374.5,41.5 374.5,27.5C 378.833,27.5 383.167,27.5 387.5,27.5C 387.5,26.1667 387.5,24.8333 387.5,23.5C 387.5,23.1667 387.5,22.8333 387.5,22.5 Z"/></g>
<g><path style="opacity:1" fill="#626262" d="M 534.5,33.5 C 533.833,45.5 533.167,57.5 532.5,69.5C 532.333,56.8289 532.5,44.1623 533,31.5C 533.717,32.0442 534.217,32.7109 534.5,33.5 Z"/></g>
<g><path style="opacity:1" fill="#606060" d="M 350.5,27.5 C 343.687,28.4912 336.687,28.8245 329.5,28.5C 329.5,33.1667 329.5,37.8333 329.5,42.5C 336.022,42.1765 342.355,42.5098 348.5,43.5C 341.833,43.5 335.167,43.5 328.5,43.5C 328.5,38.1667 328.5,32.8333 328.5,27.5C 335.833,27.5 343.167,27.5 350.5,27.5 Z"/></g>
<g><path style="opacity:1" fill="#686868" d="M 348.5,48.5 C 342.355,49.4902 336.022,49.8235 329.5,49.5C 329.5,54.1667 329.5,58.8333 329.5,63.5C 328.513,58.6946 328.179,53.6946 328.5,48.5C 335.167,48.5 341.833,48.5 348.5,48.5 Z"/></g>
<g><path style="opacity:1" fill="#8d8d8d" d="M 292.5,44.5 C 292.5,46.1667 292.5,47.8333 292.5,49.5C 298.167,49.5 303.833,49.5 309.5,49.5C 309.768,51.099 309.434,52.4324 308.5,53.5C 308.5,52.5 308.5,51.5 308.5,50.5C 302.833,50.5 297.167,50.5 291.5,50.5C 291.205,48.2646 291.539,46.2646 292.5,44.5 Z"/></g>
<g><path style="opacity:1" fill="#616160" d="M 323.5,22.5 C 323.5,38.1667 323.5,53.8333 323.5,69.5C 332.5,69.5 341.5,69.5 350.5,69.5C 341.348,70.4936 332.015,70.8269 322.5,70.5C 322.17,54.3246 322.504,38.3246 323.5,22.5 Z"/></g>
<g><path style="opacity:1" fill="#76d1af" d="M 72.5,84.5 C 75.0679,83.3569 77.7346,83.5236 80.5,85C 89.3903,89.6075 98.057,94.4409 106.5,99.5C 105.527,99.9867 104.527,100.487 103.5,101C 104.097,102.889 104.431,104.722 104.5,106.5C 104.023,107.478 103.357,108.311 102.5,109C 105.106,110.65 105.106,112.15 102.5,113.5C 100.167,111.5 97.8333,109.5 95.5,107.5C 88.1667,99.5 80.5,91.8333 72.5,84.5 Z"/></g>
<g><path style="opacity:1" fill="#43acbf" d="M 72.5,84.5 C 80.5,91.8333 88.1667,99.5 95.5,107.5C 88.3565,108.646 80.8565,108.646 73,107.5C 71.4702,108.636 70.1369,109.636 69,110.5C 68.349,104.173 67.849,97.8399 67.5,91.5C 67.9397,88.2864 69.6063,85.953 72.5,84.5 Z"/></g>
<g><path style="opacity:1" fill="#f9f9f9" d="M 319.5,169.5 C 319.5,164.5 319.5,159.5 319.5,154.5C 336.167,154.5 352.833,154.5 369.5,154.5C 372.021,190.986 355.021,210.986 318.5,214.5C 280.803,209.803 262.47,188.47 263.5,150.5C 264.924,148.485 265.59,146.152 265.5,143.5C 276.416,115.199 297.083,102.365 327.5,105C 338.419,106.958 347.752,111.792 355.5,119.5C 352.683,122.818 349.683,125.985 346.5,129C 340.512,125.016 333.846,122.016 326.5,120C 298.369,117.721 282.702,130.555 279.5,158.5C 282.23,187.064 297.897,200.23 326.5,198C 342.527,195.306 351.861,185.973 354.5,170C 342.838,169.5 331.171,169.333 319.5,169.5 Z"/></g>
<g><path style="opacity:1" fill="#45acb0" d="M 67.5,91.5 C 67.849,97.8399 68.349,104.173 69,110.5C 70.1369,109.636 71.4702,108.636 73,107.5C 80.8565,108.646 88.3565,108.646 95.5,107.5C 97.8333,109.5 100.167,111.5 102.5,113.5C 102.833,114.167 103.167,114.833 103.5,115.5C 102.27,116.606 101.104,117.606 100,118.5C 99.3333,115.833 98.6667,115.833 98,118.5C 97.6667,117.833 97.3333,117.167 97,116.5C 95.6667,116.5 94.3333,116.5 93,116.5C 92.3333,119.167 91.6667,119.167 91,116.5C 90.3333,119.167 89.6667,119.167 89,116.5C 82.7341,117.235 76.7341,117.235 71,116.5C 70.0853,117.328 69.4186,118.328 69,119.5C 68.6667,117.833 68.3333,116.167 68,114.5C 67.5004,121.158 67.3337,127.825 67.5,134.5C 67.5,138.167 67.5,141.833 67.5,145.5C 67.5,175.833 67.5,206.167 67.5,236.5C 66.1667,188.167 66.1667,139.833 67.5,91.5 Z"/></g>
<g><path style="opacity:1" fill="#94e0ac" d="M 106.5,99.5 C 115.03,103.929 123.363,108.595 131.5,113.5C 130.244,113.461 129.244,113.961 128.5,115C 128.458,120.127 128.791,125.127 129.5,130C 127.109,130.691 127.109,131.691 129.5,133C 128.009,135.022 128.342,136.688 130.5,138C 130.381,139.145 130.048,140.312 129.5,141.5C 129.167,141.5 128.833,141.5 128.5,141.5C 125.959,137.748 122.959,134.415 119.5,131.5C 114.527,125.86 109.194,120.527 103.5,115.5C 103.167,114.833 102.833,114.167 102.5,113.5C 105.106,112.15 105.106,110.65 102.5,109C 103.357,108.311 104.023,107.478 104.5,106.5C 104.431,104.722 104.097,102.889 103.5,101C 104.527,100.487 105.527,99.9867 106.5,99.5 Z"/></g>
<g><path style="opacity:1" fill="#fcfcfc" d="M 612.5,108.5 C 617.5,108.5 622.5,108.5 627.5,108.5C 627.5,142.833 627.5,177.167 627.5,211.5C 622.5,211.5 617.5,211.5 612.5,211.5C 612.5,177.167 612.5,142.833 612.5,108.5 Z"/></g>
<g><path style="opacity:1" fill="#949494" d="M 612.5,108.5 C 617.64,107.512 622.974,107.179 628.5,107.5C 628.5,142.5 628.5,177.5 628.5,212.5C 622.974,212.821 617.64,212.488 612.5,211.5C 617.5,211.5 622.5,211.5 627.5,211.5C 627.5,177.167 627.5,142.833 627.5,108.5C 622.5,108.5 617.5,108.5 612.5,108.5 Z"/></g>
<g><path style="opacity:1" fill="#fcfcfc" d="M 740.5,109.5 C 756.549,109.078 772.549,109.578 788.5,111C 805.863,119.227 812.363,132.727 808,151.5C 803.466,162.703 795.299,169.537 783.5,172C 774.173,172.5 764.839,172.666 755.5,172.5C 755.5,185.833 755.5,199.167 755.5,212.5C 750.5,212.5 745.5,212.5 740.5,212.5C 740.5,178.167 740.5,143.833 740.5,109.5 Z"/></g>
<g><path style="opacity:1" fill="#f7f7f7" d="M 822.5,109.5 C 827.833,109.5 833.167,109.5 838.5,109.5C 838.5,143.833 838.5,178.167 838.5,212.5C 833.167,212.5 827.833,212.5 822.5,212.5C 822.5,178.167 822.5,143.833 822.5,109.5 Z"/></g>
<g><path style="opacity:1" fill="#adeca7" d="M 131.5,113.5 C 139.827,117.328 147.827,121.662 155.5,126.5C 154.522,126.811 153.855,127.478 153.5,128.5C 154.211,139.144 154.211,150.144 153.5,161.5C 153.167,162.5 152.5,163.167 151.5,163.5C 149.167,161.5 146.833,159.5 144.5,157.5C 142.5,154.833 140.167,152.5 137.5,150.5C 135.147,147.151 132.48,144.151 129.5,141.5C 130.048,140.312 130.381,139.145 130.5,138C 128.342,136.688 128.009,135.022 129.5,133C 127.109,131.691 127.109,130.691 129.5,130C 128.791,125.127 128.458,120.127 128.5,115C 129.244,113.961 130.244,113.461 131.5,113.5 Z"/></g>
<g><path style="opacity:1" fill="#030303" d="M 756.5,124.5 C 764.507,124.334 772.507,124.5 780.5,125C 790.426,128.357 794.593,135.19 793,145.5C 790.526,151.144 786.359,154.811 780.5,156.5C 772.5,156.5 764.5,156.5 756.5,156.5C 756.5,145.833 756.5,135.167 756.5,124.5 Z"/></g>
<g><path style="opacity:1" fill="#404040" d="M 756.5,124.5 C 756.5,135.167 756.5,145.833 756.5,156.5C 764.5,156.5 772.5,156.5 780.5,156.5C 772.35,157.493 764.017,157.826 755.5,157.5C 755.172,146.321 755.505,135.321 756.5,124.5 Z"/></g>
<g><path style="opacity:1" fill="#4fc8c6" d="M 103.5,115.5 C 109.194,120.527 114.527,125.86 119.5,131.5C 111.183,131.817 102.35,131.817 93,131.5C 92.3333,134.167 91.6667,134.167 91,131.5C 88.814,132.022 86.4806,132.022 84,131.5C 82.3333,132.167 80.6667,132.833 79,133.5C 77.5177,131.219 75.851,131.219 74,133.5C 73,132.833 72,132.167 71,131.5C 70.2411,133.063 69.0744,134.063 67.5,134.5C 67.3337,127.825 67.5004,121.158 68,114.5C 68.3333,116.167 68.6667,117.833 69,119.5C 69.4186,118.328 70.0853,117.328 71,116.5C 76.7341,117.235 82.7341,117.235 89,116.5C 89.6667,119.167 90.3333,119.167 91,116.5C 91.6667,119.167 92.3333,119.167 93,116.5C 94.3333,116.5 95.6667,116.5 97,116.5C 97.3333,117.167 97.6667,117.833 98,118.5C 98.6667,115.833 99.3333,115.833 100,118.5C 101.104,117.606 102.27,116.606 103.5,115.5 Z"/></g>
<g><path style="opacity:1" fill="#c4f6a3" d="M 155.5,126.5 C 163.161,129.995 170.495,133.995 177.5,138.5C 169.5,146.167 161.5,153.833 153.5,161.5C 154.211,150.144 154.211,139.144 153.5,128.5C 153.855,127.478 154.522,126.811 155.5,126.5 Z"/></g>
<g><path style="opacity:1" fill="#54d4c9" d="M 119.5,131.5 C 122.959,134.415 125.959,137.748 128.5,141.5C 127.828,142.267 126.995,142.934 126,143.5C 107.89,142.866 89.0572,142.533 69.5,142.5C 69.7373,143.791 69.404,144.791 68.5,145.5C 68.1667,145.5 67.8333,145.5 67.5,145.5C 67.5,141.833 67.5,138.167 67.5,134.5C 69.0744,134.063 70.2411,133.063 71,131.5C 72,132.167 73,132.833 74,133.5C 75.851,131.219 77.5177,131.219 79,133.5C 80.6667,132.833 82.3333,132.167 84,131.5C 86.4806,132.022 88.814,132.022 91,131.5C 91.6667,134.167 92.3333,134.167 93,131.5C 102.35,131.817 111.183,131.817 119.5,131.5 Z"/></g>
<g><path style="opacity:1" fill="#fcc265" d="M 177.5,138.5 C 190.096,144.465 202.429,150.965 214.5,158C 219.145,164.411 217.812,169.411 210.5,173C 199.446,178.859 188.446,184.692 177.5,190.5C 171.833,184.167 165.833,178.167 159.5,172.5C 157.5,169.833 155.167,167.5 152.5,165.5C 152.5,164.833 152.167,164.5 151.5,164.5C 151.5,164.167 151.5,163.833 151.5,163.5C 152.5,163.167 153.167,162.5 153.5,161.5C 161.5,153.833 169.5,146.167 177.5,138.5 Z"/></g>
<g><path style="opacity:1" fill="#f9f9f9" d="M 915.5,162.5 C 915.5,178.833 915.5,195.167 915.5,211.5C 910.833,211.5 906.167,211.5 901.5,211.5C 901.817,208.428 901.484,205.428 900.5,202.5C 899.893,202.624 899.56,202.957 899.5,203.5C 892.46,213.666 882.794,217.166 870.5,214C 852.744,206.659 847.578,194.159 855,176.5C 864.13,166.901 875.297,163.067 888.5,165C 892.363,165.746 896.029,166.913 899.5,168.5C 900.143,160.685 896.476,155.852 888.5,154C 879.374,151.386 872.208,153.886 867,161.5C 863.27,159.477 859.437,157.644 855.5,156C 854.483,154.951 854.316,153.784 855,152.5C 863.935,140.739 875.769,136.239 890.5,139C 904.23,141.234 912.564,149.067 915.5,162.5 Z"/></g>
<g><path style="opacity:1" fill="#f9f9f9" d="M 922.5,142.5 C 928.537,142.171 934.537,142.504 940.5,143.5C 946.897,158.627 953.564,173.627 960.5,188.5C 966.662,173.509 972.828,158.509 979,143.5C 985.111,142.191 991.278,142.191 997.5,143.5C 982.833,176.833 968.167,210.167 953.5,243.5C 947.528,244.664 941.528,244.83 935.5,244C 941.238,232.69 946.571,221.19 951.5,209.5C 942.099,187.034 932.432,164.7 922.5,142.5 Z"/></g>
<g><path style="opacity:1" fill="#f7f7f7" d="M 403.5,143.5 C 425.348,140.876 439.848,149.876 447,170.5C 448.87,199.964 435.036,214.464 405.5,214C 383.614,207.749 374.114,193.249 377,170.5C 381.351,156.984 390.184,147.984 403.5,143.5 Z"/></g>
<g><path style="opacity:1" fill="#f8f8f8" d="M 481.5,143.5 C 503.684,141.162 518.184,150.495 525,171.5C 527.198,194.62 517.031,208.787 494.5,214C 479.444,215.388 467.611,209.888 459,197.5C 448.695,171.803 456.195,153.803 481.5,143.5 Z"/></g>
<g><path style="opacity:1" fill="#f9f9f9" d="M 584.5,150.5 C 584.56,151.043 584.893,151.376 585.5,151.5C 586.452,149.955 586.785,148.288 586.5,146.5C 590.833,146.5 595.167,146.5 599.5,146.5C 599.5,169.833 599.5,193.167 599.5,216.5C 598.206,231.628 590.206,241.128 575.5,245C 557.558,248.528 544.558,242.195 536.5,226C 536.645,225.228 536.978,224.561 537.5,224C 541.167,222.5 544.833,221 548.5,219.5C 555.965,232.171 566.298,235.004 579.5,228C 584.529,221.72 586.362,214.553 585,206.5C 574.385,215.642 562.885,216.808 550.5,210C 530.786,194.658 527.62,176.491 541,155.5C 549.686,145.715 560.519,141.882 573.5,144C 577.858,145.172 581.525,147.339 584.5,150.5 Z"/></g>
<g><path style="opacity:1" fill="#f7f7f7" d="M 662.5,143.5 C 683.308,141.393 696.308,150.393 701.5,170.5C 687.42,175.703 673.42,181.203 659.5,187C 657.777,187.523 656.444,188.523 655.5,190C 660.452,198.422 667.785,201.422 677.5,199C 682.733,197.885 686.733,195.052 689.5,190.5C 693.5,193.167 697.5,195.833 701.5,198.5C 687.462,215.569 670.795,218.736 651.5,208C 633.814,191.458 631.981,173.292 646,153.5C 650.923,149.048 656.423,145.714 662.5,143.5 Z"/></g>
<g><path style="opacity:1" fill="#58ddcb" d="M 128.5,141.5 C 128.833,141.5 129.167,141.5 129.5,141.5C 132.48,144.151 135.147,147.151 137.5,150.5C 114.932,150.137 92.265,150.137 69.5,150.5C 69.7373,151.791 69.404,152.791 68.5,153.5C 68.5,150.833 68.5,148.167 68.5,145.5C 69.404,144.791 69.7373,143.791 69.5,142.5C 89.0572,142.533 107.89,142.866 126,143.5C 126.995,142.934 127.828,142.267 128.5,141.5 Z"/></g>
<g><path style="opacity:1" fill="#d1d1d1" d="M 599.5,216.5 C 599.5,193.167 599.5,169.833 599.5,146.5C 595.167,146.5 590.833,146.5 586.5,146.5C 586.785,148.288 586.452,149.955 585.5,151.5C 584.893,151.376 584.56,151.043 584.5,150.5C 585.451,149.081 585.784,147.415 585.5,145.5C 590.5,145.5 595.5,145.5 600.5,145.5C 600.831,169.339 600.498,193.006 599.5,216.5 Z"/></g>
<g><path style="opacity:1" fill="#949494" d="M 265.5,143.5 C 265.59,146.152 264.924,148.485 263.5,150.5C 263.41,147.848 264.076,145.515 265.5,143.5 Z"/></g>
<g><path style="opacity:1" fill="#5be6cd" d="M 137.5,150.5 C 140.167,152.5 142.5,154.833 144.5,157.5C 144.217,158.289 143.717,158.956 143,159.5C 141.667,158.833 140.333,158.167 139,157.5C 119.176,158.533 99.5093,158.533 80,157.5C 76.0867,157.877 72.42,158.877 69,160.5C 68.5034,158.19 68.3367,155.857 68.5,153.5C 69.404,152.791 69.7373,151.791 69.5,150.5C 92.265,150.137 114.932,150.137 137.5,150.5 Z"/></g>
<g><path style="opacity:1" fill="#6a6a6a" d="M 369.5,154.5 C 352.833,154.5 336.167,154.5 319.5,154.5C 319.5,159.5 319.5,164.5 319.5,169.5C 318.512,164.36 318.179,159.026 318.5,153.5C 335.675,153.17 352.675,153.503 369.5,154.5 Z"/></g>
<g><path style="opacity:1" fill="#030303" d="M 405.5,157.5 C 417.458,155.394 425.958,159.727 431,170.5C 434.029,190.708 425.529,200.208 405.5,199C 394.462,193.084 390.295,183.917 393,171.5C 395.636,165.369 399.803,160.703 405.5,157.5 Z"/></g>
<g><path style="opacity:1" fill="#040404" d="M 483.5,157.5 C 505.661,157.507 513.494,168.173 507,189.5C 500.515,199.328 491.682,202.161 480.5,198C 469.23,189.616 466.73,179.116 473,166.5C 476.103,162.886 479.603,159.886 483.5,157.5 Z"/></g>
<g><path style="opacity:1" fill="#040404" d="M 563.5,157.5 C 581.299,157.718 588.799,166.718 586,184.5C 581.183,198.895 571.683,203.061 557.5,197C 547.444,187.398 545.944,176.564 553,164.5C 556.043,161.246 559.543,158.913 563.5,157.5 Z"/></g>
<g><path style="opacity:1" fill="#090909" d="M 664.5,157.5 C 669.267,157.191 673.934,157.691 678.5,159C 681.24,160.05 682.74,161.883 683,164.5C 672.918,168.639 662.918,172.972 653,177.5C 652.088,173.548 652.755,169.881 655,166.5C 657.679,162.924 660.846,159.924 664.5,157.5 Z"/></g>
<g><path style="opacity:1" fill="#62f3d1" d="M 67.5,145.5 C 67.8333,145.5 68.1667,145.5 68.5,145.5C 68.5,148.167 68.5,150.833 68.5,153.5C 68.3367,155.857 68.5034,158.19 69,160.5C 72.42,158.877 76.0867,157.877 80,157.5C 99.5093,158.533 119.176,158.533 139,157.5C 140.333,158.167 141.667,158.833 143,159.5C 143.717,158.956 144.217,158.289 144.5,157.5C 146.833,159.5 149.167,161.5 151.5,163.5C 151.5,163.833 151.5,164.167 151.5,164.5C 148.14,167.194 145.14,170.194 142.5,173.5C 125.891,172.548 109.058,172.214 92,172.5C 91.3086,174.891 90.3086,174.891 89,172.5C 82.5355,173.297 76.2021,173.297 70,172.5C 68.3661,194.436 68.0328,216.436 69,238.5C 69.7475,240.751 71.2475,242.084 73.5,242.5C 73.5,243.167 73.1667,243.5 72.5,243.5C 69.142,242.473 67.4754,240.14 67.5,236.5C 67.5,206.167 67.5,175.833 67.5,145.5 Z"/></g>
<g><path style="opacity:1" fill="#d03e69" d="M 152.5,165.5 C 155.167,167.5 157.5,169.833 159.5,172.5C 159.047,173.458 158.381,174.292 157.5,175C 160.167,175.667 160.167,176.333 157.5,177C 158.167,177.333 158.833,177.667 159.5,178C 157.541,180.316 157.541,182.316 159.5,184C 156.833,184.667 156.833,185.333 159.5,186C 157.219,187.851 157.219,189.518 159.5,191C 158.672,191.915 157.672,192.581 156.5,193C 157.167,193.333 157.833,193.667 158.5,194C 159.206,196.518 159.206,198.685 158.5,200.5C 155.992,202.924 152.992,204.59 149.5,205.5C 149.161,194.803 148.828,184.303 148.5,174C 148.416,170.382 149.749,167.549 152.5,165.5 Z"/></g>
<g><path style="opacity:1" fill="#c93e72" d="M 151.5,164.5 C 152.167,164.5 152.5,164.833 152.5,165.5C 149.749,167.549 148.416,170.382 148.5,174C 148.828,184.303 149.161,194.803 149.5,205.5C 147.337,207.083 145.004,208.416 142.5,209.5C 141.761,209.631 141.094,209.464 140.5,209C 140.942,199.013 140.942,189.013 140.5,179C 142.311,177.959 142.645,176.793 141.5,175.5C 141.833,174.833 142.167,174.167 142.5,173.5C 145.14,170.194 148.14,167.194 151.5,164.5 Z"/></g>
<g><path style="opacity:1" fill="#d5d5d5" d="M 915.5,162.5 C 916.497,178.992 916.83,195.658 916.5,212.5C 911.167,212.5 905.833,212.5 900.5,212.5C 900.81,209.287 900.477,206.287 899.5,203.5C 899.56,202.957 899.893,202.624 900.5,202.5C 901.484,205.428 901.817,208.428 901.5,211.5C 906.167,211.5 910.833,211.5 915.5,211.5C 915.5,195.167 915.5,178.833 915.5,162.5 Z"/></g>
<g><path style="opacity:1" fill="#66fcd3" d="M 142.5,173.5 C 142.167,174.167 141.833,174.833 141.5,175.5C 138.167,178.167 135.167,181.167 132.5,184.5C 127.5,188.833 122.833,193.5 118.5,198.5C 114.833,201.5 111.5,204.833 108.5,208.5C 104.833,211.5 101.5,214.833 98.5,218.5C 90.1667,226.5 81.8333,234.5 73.5,242.5C 71.2475,242.084 69.7475,240.751 69,238.5C 68.0328,216.436 68.3661,194.436 70,172.5C 76.2021,173.297 82.5355,173.297 89,172.5C 90.3086,174.891 91.3086,174.891 92,172.5C 109.058,172.214 125.891,172.548 142.5,173.5 Z"/></g>
<g><path style="opacity:1" fill="#c43c79" d="M 141.5,175.5 C 142.645,176.793 142.311,177.959 140.5,179C 140.942,189.013 140.942,199.013 140.5,209C 141.094,209.464 141.761,209.631 142.5,209.5C 139.669,211.417 136.669,213.083 133.5,214.5C 134.761,212.514 134.428,210.681 132.5,209C 135.167,208.333 135.167,207.667 132.5,207C 133.239,204.765 133.239,202.765 132.5,201C 135.167,200.333 135.167,199.667 132.5,199C 133.442,193.898 133.442,189.065 132.5,184.5C 135.167,181.167 138.167,178.167 141.5,175.5 Z"/></g>
<g><path style="opacity:1" fill="#090909" d="M 877.5,178.5 C 882.844,178.334 888.177,178.501 893.5,179C 895.615,179.557 897.615,180.391 899.5,181.5C 900.614,182.723 900.781,184.056 900,185.5C 895.071,195.881 886.904,200.381 875.5,199C 867.511,195.878 865.678,190.711 870,183.5C 872.479,181.686 874.979,180.019 877.5,178.5 Z"/></g>
<g><path style="opacity:1" fill="#d8405b" d="M 159.5,172.5 C 165.833,178.167 171.833,184.167 177.5,190.5C 171.332,194.085 164.999,197.418 158.5,200.5C 159.206,198.685 159.206,196.518 158.5,194C 157.833,193.667 157.167,193.333 156.5,193C 157.672,192.581 158.672,191.915 159.5,191C 157.219,189.518 157.219,187.851 159.5,186C 156.833,185.333 156.833,184.667 159.5,184C 157.541,182.316 157.541,180.316 159.5,178C 158.833,177.667 158.167,177.333 157.5,177C 160.167,176.333 160.167,175.667 157.5,175C 158.381,174.292 159.047,173.458 159.5,172.5 Z"/></g>
<g><path style="opacity:1" fill="#bb3a87" d="M 132.5,184.5 C 133.442,189.065 133.442,193.898 132.5,199C 135.167,199.667 135.167,200.333 132.5,201C 133.239,202.765 133.239,204.765 132.5,207C 135.167,207.667 135.167,208.333 132.5,209C 134.428,210.681 134.761,212.514 133.5,214.5C 128.167,217.5 122.833,220.5 117.5,223.5C 117.511,221.983 118.177,220.816 119.5,220C 116.833,219.333 116.833,218.667 119.5,218C 118.042,215.756 118.375,213.422 120.5,211C 118.364,208.432 118.364,206.098 120.5,204C 119.5,203 118.5,202 117.5,201C 119.619,200.658 119.953,199.825 118.5,198.5C 122.833,193.5 127.5,188.833 132.5,184.5 Z"/></g>
<g><path style="opacity:1" fill="#b33993" d="M 118.5,198.5 C 119.953,199.825 119.619,200.658 117.5,201C 118.5,202 119.5,203 120.5,204C 118.364,206.098 118.364,208.432 120.5,211C 118.375,213.422 118.042,215.756 119.5,218C 116.833,218.667 116.833,219.333 119.5,220C 118.177,220.816 117.511,221.983 117.5,223.5C 115.062,225.267 112.395,226.601 109.5,227.5C 108.769,221.068 108.435,214.734 108.5,208.5C 111.5,204.833 114.833,201.5 118.5,198.5 Z"/></g>
<g><path style="opacity:1" fill="#ab389e" d="M 108.5,208.5 C 108.435,214.734 108.769,221.068 109.5,227.5C 106.661,229.42 103.661,231.087 100.5,232.5C 99.8869,229.991 99.2202,227.491 98.5,225C 101.167,224.333 101.167,223.667 98.5,223C 101.167,222.333 101.167,221.667 98.5,221C 99.5981,220.23 99.5981,219.397 98.5,218.5C 101.5,214.833 104.833,211.5 108.5,208.5 Z"/></g>
<g><path style="opacity:1" fill="#9f38ad" d="M 98.5,218.5 C 99.5981,219.397 99.5981,220.23 98.5,221C 101.167,221.667 101.167,222.333 98.5,223C 101.167,223.667 101.167,224.333 98.5,225C 99.2202,227.491 99.8869,229.991 100.5,232.5C 93.5271,236.321 86.5271,240.154 79.5,244C 76.9615,244.796 74.6282,244.629 72.5,243.5C 73.1667,243.5 73.5,243.167 73.5,242.5C 81.8333,234.5 90.1667,226.5 98.5,218.5 Z"/></g>
</svg>
