<?xml version="1.0" standalone="no"?>
<!DOCTYPE svg PUBLIC "-//W3C//DTD SVG 20010904//EN"
 "http://www.w3.org/TR/2001/REC-SVG-20010904/DTD/svg10.dtd">
<svg version="1.0" xmlns="http://www.w3.org/2000/svg"
 width="699.000000pt" height="181.000000pt" viewBox="0 0 699.000000 181.000000"
 preserveAspectRatio="xMidYMid meet">

<g transform="translate(0.000000,181.000000) scale(0.100000,-0.100000)"
fill="#000000" stroke="none">
<path d="M0 900 l0 -900 3495 0 3495 0 0 900 0 900 -3495 0 -3495 0 0 -900z
m925 676 c49 -21 65 -60 72 -177 5 -81 3 -103 -8 -110 -26 -16 -29 -9 -29 81
0 154 -35 194 -151 169 -68 -14 -102 -31 -128 -65 -18 -23 -21 -40 -21 -139 0
-104 -1 -113 -20 -118 -19 -5 -20 0 -20 102 0 184 23 220 165 257 67 17 99 17
140 0z m189 -96 c44 -16 66 -152 26 -163 -18 -5 -20 0 -20 48 0 62 -17 85 -61
85 -22 0 -29 5 -29 20 0 15 7 20 29 20 16 0 41 -4 55 -10z m3336 -10 c0 -15
-7 -20 -25 -20 -27 0 -45 -25 -45 -64 0 -22 4 -26 30 -26 23 0 30 -4 30 -20 0
-16 -7 -20 -30 -20 l-30 0 0 -110 c0 -103 -1 -110 -20 -110 -19 0 -20 7 -20
110 0 103 -1 110 -20 110 -13 0 -20 7 -20 20 0 13 7 20 20 20 15 0 20 7 20 30
0 59 34 98 88 99 16 1 22 -5 22 -19z m-1182 -177 c-3 -180 -4 -188 -23 -188
-19 0 -20 8 -23 188 l-2 187 25 0 25 0 -2 -187z m852 -3 c0 -183 -1 -190 -20
-190 -13 0 -20 7 -20 20 l0 21 -22 -21 c-31 -28 -98 -27 -133 3 -61 53 -48
191 22 228 33 18 90 14 114 -7 19 -17 19 -16 19 59 0 70 2 77 20 77 19 0 20
-7 20 -190z m-3230 112 c-26 -23 -32 -36 -37 -84 -3 -34 -11 -59 -19 -62 -20
-8 -19 106 2 145 19 37 77 67 82 42 2 -8 -10 -27 -28 -41z m1228 38 c95 -43
111 -198 29 -288 -27 -29 -105 -52 -179 -52 l-58 0 0 180 0 180 83 0 c59 0 94
-6 125 -20z m325 -92 c51 -27 72 -119 41 -184 -21 -43 -59 -64 -120 -64 -39 0
-51 5 -80 34 -31 31 -34 39 -34 94 0 50 4 66 26 91 39 47 109 59 167 29z m679
-10 c23 -26 30 -67 26 -158 -2 -62 -6 -75 -20 -78 -16 -3 -18 6 -18 77 0 80
-11 129 -33 143 -19 12 -50 9 -72 -8 -17 -12 -21 -30 -25 -112 -5 -89 -7 -97
-25 -97 -19 0 -20 7 -20 125 0 118 1 125 20 125 11 0 19 -6 18 -12 -4 -17 12
-16 27 1 24 30 94 27 122 -6z m406 9 c70 -34 70 -183 0 -231 -13 -10 -43 -16
-73 -16 -57 0 -88 17 -110 60 -29 55 -14 143 29 180 35 28 104 32 154 7z m277
-8 c17 -17 20 -35 23 -129 4 -106 3 -110 -17 -110 -12 0 -21 6 -21 15 0 8 -4
15 -9 15 -5 0 -14 -7 -21 -15 -17 -20 -88 -19 -112 2 -25 22 -24 87 1 112 18
18 45 26 111 33 19 2 24 8 22 23 -8 46 -51 59 -104 31 -26 -14 -28 -13 -28 4
0 48 111 61 155 19z m1031 9 c71 -34 72 -183 2 -232 -13 -10 -43 -16 -73 -16
-57 0 -88 17 -110 60 -29 55 -14 143 29 180 34 28 104 32 152 8z m299 -9 c20
-18 21 -18 43 3 32 33 88 30 118 -6 22 -25 24 -36 24 -132 0 -97 -1 -104 -20
-104 -19 0 -20 7 -20 93 0 68 -4 99 -16 115 -21 30 -58 28 -83 -4 -18 -23 -21
-41 -21 -115 0 -81 -2 -89 -19 -89 -17 0 -19 10 -23 101 -2 86 -6 103 -22 115
-25 18 -47 18 -72 0 -16 -12 -20 -30 -24 -113 -4 -83 -8 -98 -22 -101 -16 -3
-18 8 -18 127 0 124 1 131 20 131 12 0 20 -7 20 -17 0 -15 2 -15 18 -1 35 31
81 30 117 -3z m-2560 9 c2 -7 15 -53 28 -103 14 -49 27 -83 30 -75 3 8 18 54
32 103 21 70 30 87 45 87 15 0 24 -15 39 -68 12 -38 24 -83 27 -101 9 -43 17
-29 45 81 18 70 26 88 41 88 20 0 22 -14 8 -56 -5 -16 -21 -69 -35 -117 -24
-78 -29 -88 -48 -85 -21 3 -33 32 -77 188 -1 3 -16 -38 -33 -90 -25 -75 -36
-96 -52 -98 -20 -3 -36 38 -92 241 -4 12 0 17 16 17 12 0 23 -6 26 -12z m1955
-10 l0 -22 16 22 c20 30 74 31 74 2 0 -15 -7 -20 -29 -20 -44 0 -55 -23 -61
-124 -4 -76 -8 -91 -22 -94 -16 -3 -18 8 -18 127 0 124 1 131 20 131 14 0 20
-7 20 -22z m-3092 -60 l92 -33 -2 -484 -3 -484 -94 -35 -93 -34 -494 98 -494
98 0 357 0 356 473 96 c259 52 483 95 497 96 14 1 67 -14 118 -31z m2080 -656
l2 -282 -36 0 c-33 0 -36 2 -32 25 6 28 -4 32 -23 9 -25 -31 -71 -46 -121 -42
-94 10 -143 76 -143 193 1 82 26 140 77 177 47 33 146 33 180 1 14 -13 26 -23
29 -23 2 0 3 45 1 101 -2 56 -1 106 1 113 3 6 18 11 33 11 l29 -2 3 -281z
m-844 255 c11 -8 17 -23 14 -38 -2 -19 -10 -25 -35 -27 -28 -3 -33 0 -39 24
-5 20 -2 31 11 41 23 16 27 16 49 0z m2614 -3 c17 -5 22 -13 22 -41 0 -30 -3
-34 -17 -28 -97 41 -193 9 -193 -63 0 -39 17 -59 82 -98 123 -74 148 -103 148
-176 0 -89 -85 -147 -197 -136 -81 9 -103 22 -103 63 0 19 1 35 3 35 1 0 20
-9 42 -20 52 -26 134 -27 166 -1 27 22 32 79 9 107 -8 10 -52 41 -97 71 -97
62 -117 88 -117 152 0 88 62 140 169 140 33 1 70 -2 83 -5z m-3283 -223 c33
-121 63 -214 66 -208 3 7 32 105 65 219 l59 208 32 0 c22 0 33 -6 37 -17 3
-10 28 -101 56 -203 28 -102 53 -192 56 -200 4 -8 28 64 54 160 26 96 53 194
59 218 11 39 14 42 47 42 25 0 35 -4 31 -12 -2 -7 -34 -119 -71 -248 -37 -129
-69 -243 -72 -252 -4 -13 -16 -18 -43 -18 l-38 0 -60 212 -59 212 -60 -212
-59 -213 -39 3 -38 3 -78 263 -77 262 36 0 36 0 60 -219z m3485 124 l0 -55 50
0 c47 0 50 -2 50 -25 0 -23 -3 -25 -50 -25 l-50 0 0 -130 c0 -126 1 -130 24
-145 15 -10 33 -14 50 -9 21 5 26 3 26 -13 0 -29 -20 -43 -63 -43 -29 0 -46 7
-68 29 l-29 29 0 141 0 141 -35 0 c-31 0 -35 3 -35 25 0 22 4 25 35 25 l35 0
0 49 c0 39 4 51 18 54 40 11 42 8 42 -48z m-2449 -71 c40 -36 49 -75 49 -224
l0 -140 -30 0 -30 0 0 125 c0 87 -4 136 -15 160 -26 63 -102 70 -150 13 -24
-28 -25 -35 -25 -164 l0 -134 -35 0 -35 0 0 191 0 190 33 -3 c26 -2 32 -7 31
-25 -1 -25 11 -31 19 -10 17 45 145 60 188 21z m822 12 c128 -53 143 -276 25
-354 -84 -55 -212 -33 -265 46 -43 65 -40 187 7 252 43 61 157 88 233 56z
m881 4 c20 -7 26 -17 26 -39 l0 -29 -45 17 c-41 14 -48 14 -73 1 -19 -11 -28
-25 -30 -47 -3 -30 1 -33 68 -69 95 -50 117 -90 85 -158 -27 -57 -116 -82
-194 -55 -25 9 -31 16 -31 41 0 25 3 29 18 23 58 -25 94 -29 120 -14 30 16 40
52 21 75 -7 9 -38 28 -69 44 -68 34 -80 48 -87 98 -4 31 0 44 23 71 15 18 37
37 48 41 29 12 90 12 120 0z m1159 -4 c127 -53 143 -276 25 -353 -77 -51 -197
-38 -252 28 -54 64 -59 188 -11 261 45 68 157 99 238 64z m365 -22 c3 -29 1
-30 -30 -26 -77 9 -108 -57 -108 -227 l0 -101 -30 0 -30 0 0 190 0 190 30 0
c27 0 30 -3 30 -32 l1 -33 22 26 c29 35 57 49 87 46 20 -2 26 -8 28 -33z m292
18 c46 -24 80 -90 80 -154 l0 -48 -136 0 -136 0 7 -27 c10 -44 34 -74 70 -89
46 -19 71 -17 123 6 l43 20 -3 -32 c-3 -26 -9 -33 -43 -45 -55 -20 -147 -13
-183 14 -93 69 -99 247 -10 330 48 45 129 56 188 25z m-3880 -182 l0 -190 -30
0 -30 0 0 190 0 190 30 0 30 0 0 -190z m1415 48 c21 -79 41 -146 44 -150 3 -4
26 60 51 142 l45 150 30 0 30 0 40 -149 c22 -83 43 -147 47 -143 3 4 23 71 44
150 37 141 37 142 65 142 17 0 29 -5 29 -12 0 -7 -24 -92 -54 -188 l-53 -175
-34 0 -34 0 -42 145 c-23 80 -44 138 -47 130 -3 -8 -23 -75 -46 -147 l-41
-133 -32 0 -32 0 -54 178 c-29 97 -56 183 -58 190 -3 8 6 12 30 12 l34 0 38
-142z"/>
<path d="M3960 1310 c-62 -62 -23 -191 55 -176 45 9 65 39 65 100 0 42 -5 57
-23 74 -29 27 -71 28 -97 2z"/>
<path d="M1950 1280 l0 -140 48 0 c55 0 107 24 135 62 23 31 27 120 8 157 -21
38 -70 61 -133 61 l-58 0 0 -140z"/>
<path d="M2332 1323 c-20 -8 -42 -59 -42 -98 0 -27 8 -44 29 -66 36 -35 70
-37 107 -5 24 20 28 31 28 76 0 45 -4 56 -28 76 -25 22 -64 29 -94 17z"/>
<path d="M3403 1306 c-24 -21 -28 -32 -28 -76 0 -44 4 -55 28 -76 81 -70 175
34 122 135 -24 48 -77 55 -122 17z"/>
<path d="M3720 1223 c-35 -7 -50 -21 -50 -49 0 -56 82 -55 106 1 23 57 18 61
-56 48z"/>
<path d="M4713 1306 c-24 -21 -28 -32 -28 -76 0 -44 4 -55 28 -76 81 -70 175
34 122 135 -24 48 -77 55 -122 17z"/>
<path d="M1055 1025 c-5 -2 -63 -11 -127 -20 l-118 -17 0 -99 0 -99 135 0 135
0 0 120 c0 66 -3 120 -7 119 -5 0 -12 -2 -18 -4z"/>
<path d="M670 971 l-105 -16 0 -80 0 -80 108 -3 107 -3 0 101 c0 55 -1 99 -2
99 -2 -1 -50 -9 -108 -18z"/>
<path d="M562 673 l3 -88 70 -11 c39 -6 87 -14 108 -17 l37 -6 0 105 0 104
-110 0 -111 0 3 -87z"/>
<path d="M810 656 l0 -104 63 -10 c34 -6 87 -13 117 -17 30 -4 63 -9 73 -11
16 -5 17 5 17 120 l0 126 -135 0 -135 0 0 -104z"/>
<path d="M3300 668 c-45 -24 -70 -74 -70 -142 0 -107 57 -162 141 -137 58 17
79 57 79 148 0 65 -3 76 -27 103 -32 36 -85 47 -123 28z"/>
<path d="M3735 666 c-43 -19 -62 -45 -74 -96 -27 -121 59 -215 164 -180 52 17
75 59 75 138 0 77 -20 119 -65 138 -42 17 -61 17 -100 0z"/>
<path d="M5783 673 c-33 -6 -83 -68 -85 -106 -5 -96 15 -147 68 -172 40 -19
65 -19 109 -1 45 19 65 61 65 137 0 111 -56 162 -157 142z"/>
<path d="M6445 671 c-27 -11 -51 -40 -64 -74 l-11 -27 105 0 105 0 -6 28 c-13
56 -80 94 -129 73z"/>
</g>
</svg>
